<svg version="1.0" xmlns="http://www.w3.org/2000/svg"
 width="92.000000pt" height="32.000000pt" viewBox="0 0 92.000000 32.000000"
 preserveAspectRatio="xMidYMid meet">
<metadata>
Created by potrace 1.16, written by Peter Selinger 2001-2019
</metadata>
<g transform="translate(0.000000,32.000000) scale(0.007803,-0.005378)"
fill="#000000" stroke="none">
<path d="M2124 4426 c-31 -31 -34 -39 -34 -94 0 -244 384 -497 496 -327 26 40
15 147 -22 216 -41 76 -136 169 -213 207 -52 26 -76 32 -129 32 -60 0 -66 -2
-98 -34z m195 -68 c66 -32 141 -110 141 -146 0 -33 -49 -86 -97 -102 -39 -14
-76 3 -123 56 -122 139 -70 264 79 192z"/>
<path d="M5805 4199 c-35 -27 -41 -36 -46 -82 -5 -46 -220 -669 -271 -787 -26
-62 -55 -89 -100 -96 -32 -6 -38 -11 -38 -30 l0 -24 175 0 175 0 0 25 c0 23
-3 25 -50 25 -42 0 -52 4 -66 25 -20 30 -16 58 28 203 l31 102 163 0 c145 0
163 -2 169 -17 31 -82 85 -250 85 -267 0 -32 -19 -46 -62 -46 -34 0 -38 -3
-38 -25 l0 -25 195 0 195 0 0 25 c0 21 -5 25 -30 25 -53 0 -85 24 -108 82 -12
29 -88 240 -171 468 -82 228 -153 423 -156 433 -10 24 -34 20 -80 -14z m73
-386 l70 -193 -139 0 c-77 0 -139 3 -139 6 0 22 125 392 131 386 4 -4 38 -94
77 -199z"/>
<path d="M9440 4215 c-8 -9 -26 -23 -41 -30 -23 -12 -27 -22 -31 -72 -4 -41
-42 -160 -130 -403 -69 -190 -133 -363 -142 -385 -24 -56 -54 -84 -98 -91 -32
-6 -38 -11 -38 -30 l0 -24 175 0 175 0 0 25 c0 23 -3 25 -50 25 -42 0 -52 4
-66 25 -19 30 -16 57 28 203 l31 102 167 0 166 0 49 -145 c58 -167 57 -178
-19 -183 -41 -3 -46 -6 -46 -28 l0 -24 200 0 200 0 0 25 c0 21 -5 25 -30 25
-43 0 -84 23 -99 57 -7 15 -71 186 -141 378 -70 193 -145 397 -166 455 -31 83
-43 106 -60 108 -11 2 -27 -4 -34 -13z m56 -413 c35 -96 64 -176 64 -178 0 -2
-63 -4 -140 -4 -77 0 -140 4 -140 8 0 7 112 348 126 382 7 18 2 30 90 -208z"/>
<path d="M3920 4171 c0 -15 9 -21 40 -26 22 -4 50 -15 62 -25 l23 -18 -3 -282
c-4 -455 -17 -541 -83 -575 -15 -8 -44 -15 -64 -15 -31 0 -35 -3 -35 -25 l0
-25 190 0 190 0 0 25 c0 23 -4 25 -44 25 -28 0 -52 7 -67 19 -23 19 -24 23
-27 213 -2 106 -1 263 3 348 l8 155 141 -285 c78 -157 165 -336 194 -398 66
-141 77 -144 127 -27 19 44 106 226 192 405 l158 325 6 -115 c4 -63 7 -221 8
-351 1 -225 0 -238 -20 -263 -18 -22 -28 -26 -75 -26 -51 0 -54 -1 -54 -25 l0
-25 230 0 230 0 0 24 c0 21 -5 24 -56 28 -32 3 -62 11 -71 21 -25 24 -31 106
-39 489 -8 402 -10 391 76 403 40 6 50 11 50 26 0 18 -9 19 -132 19 l-133 0
-24 -58 c-49 -114 -354 -732 -360 -726 -3 3 -89 179 -192 392 l-186 387 -132
3 c-124 2 -131 2 -131 -17z"/>
<path d="M6430 4171 c0 -15 10 -21 43 -26 23 -4 54 -14 69 -23 56 -33 58 -48
58 -430 0 -192 -3 -363 -6 -381 -11 -52 -46 -81 -99 -81 -41 0 -45 -2 -45 -25
l0 -25 195 0 195 0 0 25 c0 23 -4 25 -40 25 -23 0 -53 6 -69 14 -54 28 -56 42
-59 406 -2 321 -2 334 15 313 10 -11 175 -195 368 -407 262 -290 355 -386 372
-386 l22 0 3 454 c3 443 4 455 24 483 15 20 34 31 67 37 36 7 47 14 47 28 0
17 -12 18 -190 18 -180 0 -190 -1 -190 -19 0 -15 10 -21 43 -26 129 -20 129
-17 125 -403 l-3 -312 -136 147 c-353 385 -477 522 -513 566 l-38 47 -129 0
c-120 0 -129 -1 -129 -19z"/>
<path d="M7720 4171 c0 -16 9 -21 45 -27 31 -4 52 -14 65 -32 19 -24 20 -41
20 -429 l0 -404 -25 -24 c-18 -18 -35 -25 -65 -25 -36 0 -40 -2 -40 -25 l0
-25 210 0 210 0 0 25 c0 23 -4 25 -43 25 -30 0 -50 6 -65 20 -22 21 -22 22
-22 435 0 471 -4 447 84 460 36 6 46 11 46 26 0 18 -11 19 -210 19 -201 0
-210 -1 -210 -19z"/>
<path d="M8300 4171 c0 -12 6 -21 13 -21 6 0 29 -5 50 -11 67 -18 68 -24 65
-475 l-3 -396 -24 -19 c-15 -12 -39 -19 -67 -19 -40 0 -44 -2 -44 -25 l0 -25
215 0 215 0 0 25 c0 22 -4 25 -39 25 -24 0 -48 8 -65 21 l-26 20 0 435 0 434
38 0 c72 0 144 -29 189 -76 47 -48 63 -93 63 -175 0 -66 -14 -112 -47 -157
-33 -44 -72 -62 -138 -62 -55 0 -55 0 -55 -31 l0 -31 88 4 c66 3 100 10 142
30 138 64 204 196 170 338 -17 72 -91 148 -175 181 -56 22 -75 24 -312 27
-250 3 -253 3 -253 -17z"/>
<path d="M10070 4171 c0 -15 10 -20 46 -26 57 -8 81 -32 89 -87 3 -24 5 -209
3 -411 l-3 -369 -28 -24 c-19 -17 -40 -24 -68 -24 -35 0 -39 -3 -39 -25 l0
-25 383 0 382 0 24 103 c13 56 26 108 28 115 3 7 -4 12 -20 12 -19 0 -27 -8
-41 -43 -20 -54 -69 -101 -121 -118 -50 -16 -218 -16 -268 0 -20 7 -46 24 -57
38 -19 25 -20 40 -20 419 0 447 -4 425 84 438 36 6 46 11 46 27 0 18 -9 19
-210 19 -199 0 -210 -1 -210 -19z"/>
<path d="M1494 4046 c-5 -20 -1 -35 15 -57 12 -16 19 -33 16 -38 -3 -5 0 -11
6 -13 7 -2 5 -11 -7 -23 -19 -18 -19 -18 -22 1 -4 21 -40 64 -54 64 -16 0 -8
-67 10 -83 10 -10 18 -27 16 -40 -1 -12 -3 -26 -3 -30 -2 -15 -21 4 -21 21 -1
17 -48 78 -55 71 -2 -2 -6 -15 -10 -29 -4 -18 1 -36 19 -63 15 -21 26 -48 26
-60 0 -21 1 -21 23 5 12 14 33 29 47 33 53 15 91 39 105 66 8 15 15 30 15 33
0 5 -80 -27 -115 -46 -19 -11 -19 -10 -2 9 10 12 38 26 63 33 26 8 55 25 69
42 33 39 32 52 -2 35 -16 -8 -41 -17 -58 -21 -26 -6 -28 -5 -15 7 8 7 34 19
57 26 36 10 101 66 90 77 -7 7 -93 -31 -121 -54 -28 -23 -30 -23 -37 -5 -5 10
-17 29 -28 43 l-19 25 -8 -29z"/>
<path d="M2970 4064 c0 -28 51 -69 97 -77 31 -6 51 -18 57 -32 4 -10 -11 -7
-49 10 -45 19 -55 21 -55 9 0 -25 45 -62 91 -75 24 -7 51 -19 59 -27 13 -12
12 -13 -10 -7 -14 4 -42 15 -62 25 -32 15 -38 15 -38 3 0 -26 56 -72 104 -84
26 -6 51 -20 56 -30 9 -15 0 -14 -56 11 -36 17 -68 30 -70 30 -9 0 19 -45 45
-74 14 -16 20 -26 14 -22 -21 12 -15 -28 7 -57 13 -16 43 -33 75 -43 30 -10
56 -23 59 -30 3 -7 -22 -1 -60 16 -35 16 -64 24 -64 19 0 -6 7 -39 16 -73 9
-33 17 -88 18 -121 3 -74 28 -125 90 -183 40 -38 44 -45 36 -68 -13 -34 -13
-37 8 -30 10 4 7 -2 -8 -13 l-25 -20 -5 38 c-4 23 -20 55 -43 82 -20 25 -40
56 -46 70 l-9 24 -12 -30 c-7 -16 -13 -55 -14 -85 0 -46 5 -66 37 -123 38 -66
38 -69 22 -94 -12 -17 -14 -28 -6 -32 6 -4 -2 -11 -18 -17 -26 -10 -27 -9 -23
12 2 12 -4 47 -14 76 -9 29 -18 72 -18 95 -1 24 -4 43 -7 43 -4 0 -23 -31 -43
-69 -42 -80 -45 -116 -15 -195 l22 -57 -22 -22 c-26 -28 -26 -34 -3 -40 9 -3
3 -5 -14 -6 -17 0 -39 -10 -49 -21 -26 -29 -38 -24 -18 7 13 20 17 43 15 87
-2 34 -4 78 -5 99 0 20 -4 37 -7 37 -8 0 -52 -48 -73 -80 -20 -29 -22 -101 -6
-166 11 -43 10 -47 -15 -73 -14 -15 -23 -30 -19 -34 3 -4 -2 -7 -12 -7 -10 0
-33 -12 -52 -26 l-34 -26 31 55 c27 48 30 64 29 118 -2 36 3 74 10 87 16 30 2
28 -46 -7 -79 -57 -104 -137 -78 -250 7 -29 4 -36 -21 -58 -27 -22 -27 -24 -6
-20 12 3 22 1 22 -4 0 -5 -15 -9 -33 -9 -18 0 -43 -7 -55 -16 -21 -14 -21 -13
4 23 22 33 25 44 19 83 -4 25 -8 64 -9 88 0 23 -5 42 -10 42 -5 0 -28 -20 -52
-44 -29 -30 -45 -58 -51 -88 -11 -48 -6 -118 8 -118 18 0 8 -30 -18 -55 -22
-20 -24 -25 -10 -25 9 0 17 -5 17 -10 0 -6 -11 -8 -25 -4 -25 6 -40 0 -135
-53 l-55 -31 -75 44 c-60 36 -82 44 -108 40 -19 -3 -30 -1 -27 5 4 5 14 9 23
9 13 0 10 6 -10 23 -20 16 -29 34 -32 67 -4 32 -3 36 2 15 6 -25 9 -27 15 -12
11 30 8 95 -7 131 -16 37 -82 106 -103 106 -11 0 -11 -4 -3 -21 8 -15 8 -29 1
-51 -16 -44 -14 -111 4 -134 17 -23 20 -43 3 -26 -7 7 -27 12 -44 12 -18 0
-36 5 -40 11 -4 8 0 9 15 4 27 -8 27 -1 -4 29 -25 25 -34 66 -15 66 15 0 12
106 -4 143 -7 18 -35 52 -61 75 -51 45 -72 54 -59 25 4 -10 8 -49 8 -88 1 -58
6 -78 29 -117 30 -53 28 -58 -10 -28 -14 11 -34 20 -44 20 -11 0 -16 5 -13 14
3 7 -2 16 -11 19 -27 11 -36 52 -20 98 18 50 19 102 4 132 -12 23 -79 97 -89
97 -3 0 -5 -47 -5 -104 0 -95 2 -107 24 -138 l25 -33 -37 33 c-21 18 -50 33
-65 33 -17 1 -20 3 -9 6 23 6 22 12 -8 43 l-25 26 20 41 c36 74 35 110 -4 189
-42 88 -56 99 -56 46 0 -21 -7 -62 -16 -92 -9 -29 -14 -67 -12 -84 l3 -31 -31
15 c-17 8 -25 16 -17 18 11 3 10 9 -4 32 -16 28 -16 30 20 99 41 77 47 135 22
201 l-13 35 -11 -29 c-6 -15 -27 -46 -46 -69 -19 -22 -37 -55 -41 -73 -8 -42
-28 -35 -31 12 -1 29 6 43 44 82 60 62 83 110 83 169 -1 40 -2 45 -11 28 -6
-11 -38 -45 -70 -76 -48 -45 -59 -62 -60 -90 -1 -27 -3 -29 -6 -9 -3 14 -10
31 -16 39 -9 12 -9 13 1 7 8 -5 12 0 12 16 1 22 28 69 34 58 1 -3 24 8 49 25
48 30 87 89 87 133 0 11 5 33 12 47 6 14 9 27 6 30 -5 5 -43 -10 -100 -40 -16
-8 -28 -10 -28 -6 0 11 31 37 39 34 3 -2 20 2 37 7 39 13 74 50 78 81 1 13 12
40 24 59 12 19 22 38 22 43 0 10 -18 9 -25 -2 -3 -5 -22 -15 -43 -21 -20 -7
-49 -24 -64 -38 -24 -22 -28 -23 -28 -8 0 10 -15 36 -34 56 -26 29 -36 35 -40
23 -12 -30 -5 -62 19 -91 40 -48 29 -59 -14 -13 -41 44 -44 44 -55 -1 -5 -23
0 -35 29 -67 37 -41 50 -78 17 -48 -10 10 -24 17 -30 17 -6 0 -20 9 -30 20
l-19 21 -6 -29 c-6 -30 1 -72 12 -72 15 0 64 -48 58 -57 -10 -15 -87 23 -87
42 0 29 -18 14 -24 -20 -10 -50 -2 -67 44 -93 30 -17 40 -29 40 -48 l0 -25
-26 20 c-15 12 -35 21 -46 21 -10 0 -21 7 -25 16 -9 23 -23 -3 -23 -43 0 -48
8 -61 60 -89 43 -24 70 -56 70 -86 0 -9 -3 -9 -12 0 -7 7 -31 12 -55 12 -29 0
-45 5 -52 18 -17 28 -14 -42 3 -83 18 -41 42 -55 98 -55 53 0 58 -4 93 -59 23
-37 24 -43 9 -36 -11 4 -45 9 -78 11 -32 2 -65 9 -72 15 -21 17 -18 -4 7 -52
27 -54 73 -73 154 -65 l61 6 49 -51 c33 -33 41 -47 26 -39 -17 9 -48 11 -96 7
-55 -5 -76 -3 -93 9 -34 24 -26 -2 16 -47 56 -63 87 -72 184 -58 l80 12 31
-32 32 -31 -36 0 c-20 0 -55 -7 -78 -15 -38 -13 -47 -13 -78 0 -20 9 -38 14
-40 12 -8 -9 107 -107 133 -113 16 -4 53 -2 84 5 108 24 132 24 165 -4 l30
-25 -46 0 c-25 0 -67 -7 -93 -16 -26 -9 -60 -14 -76 -12 -37 6 -38 -2 -2 -29
80 -59 140 -68 262 -39 l64 15 46 -27 45 -27 -40 -2 c-22 -2 -65 -10 -97 -19
-45 -13 -63 -14 -89 -5 -42 15 -48 7 -18 -25 48 -52 107 -78 173 -77 65 1 133
24 143 48 8 22 19 19 85 -22 l59 -37 -34 -20 c-19 -12 -69 -39 -111 -61 -76
-40 -87 -53 -63 -73 9 -8 45 8 135 59 l122 69 38 -23 c20 -13 76 -45 124 -71
83 -45 87 -46 97 -27 10 18 4 24 -56 57 -38 21 -89 49 -115 64 l-47 26 63 37
c68 40 86 45 86 23 0 -21 87 -51 145 -50 59 1 116 27 164 78 38 39 35 42 -15
24 -27 -9 -43 -8 -92 6 -33 10 -78 17 -101 14 -22 -2 -41 -3 -41 -2 0 1 22 16
48 33 l48 30 64 -15 c128 -30 219 -14 280 51 l23 24 -36 -6 c-23 -3 -51 1 -77
11 -22 9 -61 16 -87 16 -45 0 -46 0 -28 20 28 31 50 33 146 14 l90 -18 43 22
c45 24 114 88 104 97 -2 3 -19 -2 -37 -11 -26 -13 -37 -14 -64 -3 -18 6 -54
15 -81 18 l-50 6 38 29 c37 28 38 28 113 17 66 -10 79 -9 117 7 23 11 57 38
75 61 33 42 36 66 5 40 -11 -9 -45 -13 -103 -14 l-88 0 35 42 36 42 70 -5 c85
-6 123 12 156 75 25 51 25 54 -2 40 -12 -7 -39 -11 -58 -11 -20 1 -50 -2 -68
-7 l-32 -10 16 30 c27 52 50 69 98 69 69 0 116 53 116 134 0 18 -1 18 -18 3
-10 -10 -33 -17 -51 -17 -18 0 -41 -4 -51 -10 -35 -19 -7 43 31 67 78 50 84
57 81 108 -2 55 -9 68 -23 42 -6 -9 -18 -17 -27 -17 -10 0 -27 -7 -39 -15 -18
-12 -22 -13 -26 -1 -6 15 9 30 56 59 22 14 27 25 27 55 0 47 -15 74 -24 44 -4
-11 -17 -23 -31 -26 -13 -3 -31 -13 -39 -22 -15 -14 -16 -13 -16 9 0 18 10 31
35 46 27 16 35 27 35 50 0 16 -3 36 -6 44 -6 17 -5 17 -67 -38 -24 -21 -26
-21 -30 -4 -4 14 5 27 29 45 34 26 40 46 28 92 -6 22 -24 31 -24 11 0 -15 -59
-69 -65 -59 -3 4 9 25 25 45 17 21 30 45 30 54 0 21 -29 62 -30 42 0 -7 -11
-22 -25 -33 -14 -11 -25 -30 -25 -43 0 -18 -4 -23 -15 -19 -12 5 -13 10 -4 20
6 7 8 17 5 23 -3 5 5 23 19 39 25 30 34 85 16 96 -13 8 -61 -52 -61 -76 0 -16
-3 -18 -14 -9 -17 14 -9 55 15 77 20 18 26 59 10 68 -5 3 -23 -10 -41 -30 -17
-20 -34 -34 -36 -31 -14 14 -9 58 7 73 20 18 26 69 9 79 -5 3 -10 3 -10 -2 -1
-4 -12 -21 -25 -38 -22 -27 -25 -28 -42 -13 -10 9 -40 26 -66 37 -53 23 -57
24 -57 15z"/>
<path d="M1860 3870 c-90 -9 -143 -29 -165 -64 -34 -52 12 -146 94 -192 27
-16 48 -31 45 -35 -2 -4 3 -9 11 -12 22 -9 26 -54 28 -319 2 -234 3 -248 23
-275 17 -22 29 -28 59 -28 74 0 94 69 95 330 0 92 5 149 13 165 16 31 56 51
85 43 45 -11 52 -47 52 -255 1 -267 15 -318 90 -318 26 0 43 7 61 26 23 25 24
31 31 252 5 125 13 238 18 252 16 39 46 54 80 40 15 -6 32 -21 38 -33 6 -13
12 -113 15 -242 3 -174 7 -228 20 -257 29 -68 101 -76 134 -15 15 27 19 68 23
262 4 165 9 237 18 253 15 26 84 61 120 62 51 0 115 24 148 55 31 29 34 38 34
86 0 68 -42 155 -86 181 -16 10 -61 23 -100 29 -82 13 -874 21 -984 9z"/>
<path d="M7260 2851 c0 -48 3 -61 15 -61 8 0 15 8 15 19 0 29 24 42 90 48 l60
6 -2 -214 -3 -214 -27 -3 c-16 -2 -28 -9 -28 -18 0 -11 21 -14 106 -14 80 0
105 3 102 13 -3 6 -13 14 -24 16 -43 8 -44 15 -44 227 l0 204 49 0 c70 0 101
-14 101 -45 0 -15 6 -25 14 -25 14 0 26 42 26 92 0 27 -2 29 -22 22 -13 -5
-104 -8 -203 -8 -99 0 -190 3 -202 8 -22 8 -23 6 -23 -53z"/>
<path d="M8955 2895 c-10 -8 -21 -27 -23 -43 -4 -30 -117 -352 -138 -394 -9
-16 -23 -28 -34 -28 -11 0 -20 -7 -20 -15 0 -12 16 -15 86 -15 63 0 85 3 82
12 -3 7 -15 15 -29 18 -31 8 -34 26 -14 94 l16 56 78 0 77 0 22 -62 c28 -79
28 -84 -3 -92 -55 -14 -22 -26 70 -26 78 0 95 3 95 15 0 8 -8 15 -19 15 -10 0
-23 6 -29 13 -6 6 -47 114 -92 240 -45 125 -87 227 -94 227 -6 0 -20 -7 -31
-15z"/>
<path d="M6753 2880 c-60 -36 -80 -116 -47 -186 12 -24 36 -46 83 -73 84 -50
105 -73 105 -118 0 -43 -40 -83 -83 -83 -34 0 -76 31 -96 71 -25 47 -39 36
-32 -23 4 -28 11 -56 17 -62 16 -16 146 -20 179 -6 53 22 84 64 88 122 5 69
-19 108 -88 145 -88 47 -119 79 -119 122 0 91 132 113 154 26 4 -14 13 -25 20
-25 11 0 13 11 9 43 -8 68 -6 67 -85 67 -55 0 -81 -5 -105 -20z"/>
<path d="M3860 2881 c0 -5 13 -14 29 -19 l29 -10 3 -174 c4 -150 7 -177 24
-207 37 -63 65 -76 168 -76 81 0 96 3 126 24 53 38 61 71 61 240 0 160 7 195
39 206 45 14 17 25 -64 25 -87 0 -107 -10 -56 -28 36 -13 41 -38 41 -191 -1
-197 -23 -241 -125 -241 -68 0 -108 30 -124 94 -14 55 -15 290 -1 316 5 10 21
21 35 24 57 14 21 26 -80 26 -58 0 -105 -4 -105 -9z"/>
<path d="M4382 2878 c3 -7 13 -15 24 -17 10 -1 27 -10 37 -19 15 -13 17 -36
17 -197 0 -189 -4 -210 -44 -217 -11 -1 -21 -9 -24 -15 -3 -10 21 -13 98 -13
77 0 101 3 98 13 -3 6 -17 13 -31 15 -50 6 -58 33 -55 199 l3 149 178 -193
c98 -106 185 -193 193 -193 12 0 14 36 14 223 0 122 4 227 8 233 4 6 17 14 30
18 48 15 18 26 -73 26 -58 0 -95 -4 -95 -10 0 -6 14 -13 30 -17 54 -10 60 -31
60 -193 l-1 -145 -109 115 c-60 63 -135 145 -167 182 l-58 67 -68 0 c-51 1
-68 -2 -65 -11z"/>
<path d="M4980 2881 c0 -5 14 -14 30 -20 l30 -10 -2 -208 -3 -208 -27 -3 c-16
-2 -28 -9 -28 -18 0 -11 20 -14 100 -14 82 0 100 3 100 15 0 9 -9 15 -24 15
-13 0 -27 7 -30 16 -9 22 -7 387 2 400 4 6 17 14 30 18 49 16 17 26 -78 26
-55 0 -100 -4 -100 -9z"/>
<path d="M5210 2881 c0 -6 12 -16 27 -23 24 -11 41 -45 119 -238 72 -179 94
-226 110 -228 17 -2 32 27 108 220 58 147 96 230 112 243 13 12 24 24 24 28 0
4 -34 7 -75 7 -77 0 -97 -12 -49 -30 22 -9 25 -14 19 -38 -6 -24 -71 -202
-105 -287 -12 -29 -14 -26 -75 130 -35 88 -64 167 -64 176 -1 9 8 19 19 22 11
3 20 10 20 16 0 7 -33 11 -95 11 -53 0 -95 -4 -95 -9z"/>
<path d="M5742 2878 c3 -7 15 -15 29 -18 l24 -6 0 -209 0 -210 -27 -3 c-16 -2
-28 -9 -28 -18 0 -12 29 -14 186 -12 l187 3 13 45 c21 68 2 99 -24 40 -19 -41
-59 -60 -131 -60 -79 0 -91 16 -91 123 l0 78 68 -3 c65 -3 67 -4 70 -30 2 -16
9 -28 17 -28 10 0 13 19 13 80 0 61 -4 80 -14 80 -8 0 -14 -6 -14 -14 0 -25
-42 -46 -92 -46 l-48 0 0 95 0 95 64 0 c70 0 116 -24 116 -61 0 -10 7 -19 15
-19 12 0 15 13 15 55 l0 55 -176 0 c-134 0 -175 -3 -172 -12z"/>
<path d="M6180 2880 c0 -5 11 -12 25 -16 14 -3 27 -16 30 -28 3 -11 4 -104 3
-206 l-3 -185 -27 -13 c-50 -23 -30 -32 72 -32 80 0 100 3 100 14 0 9 -12 16
-27 18 l-28 3 -3 98 -3 97 25 0 c20 0 37 -18 90 -97 94 -141 84 -133 155 -133
48 0 61 3 61 15 0 8 -8 15 -19 15 -23 0 -72 54 -131 144 -34 54 -41 71 -30 74
29 10 69 60 75 94 9 47 -16 103 -57 128 -29 17 -50 20 -170 20 -84 0 -138 -4
-138 -10z m249 -46 c25 -21 31 -33 31 -66 0 -21 -5 -48 -10 -59 -14 -25 -62
-49 -100 -49 l-30 0 0 100 0 100 39 0 c28 0 49 -8 70 -26z"/>
<path d="M7030 2881 c0 -5 10 -13 23 -17 12 -4 25 -12 29 -18 9 -13 11 -378 2
-400 -3 -9 -17 -16 -30 -16 -15 0 -24 -6 -24 -15 0 -12 18 -15 100 -15 80 0
100 3 100 14 0 9 -12 16 -27 18 l-28 3 -3 208 -2 208 30 10 c55 20 31 29 -70
29 -55 0 -100 -4 -100 -9z"/>
<path d="M7742 2878 c3 -7 14 -15 26 -18 13 -3 55 -50 102 -115 l80 -109 0
-87 c0 -104 -5 -119 -36 -119 -15 0 -24 -6 -24 -15 0 -12 18 -15 100 -15 80 0
100 3 100 14 0 9 -12 16 -27 18 l-28 3 -3 105 -3 105 76 102 c41 56 84 107 95
113 38 20 20 30 -55 30 -74 0 -99 -12 -50 -24 14 -4 25 -11 25 -17 0 -5 -25
-44 -56 -85 l-56 -76 -42 59 c-79 109 -80 110 -56 116 11 3 20 10 20 16 0 7
-33 11 -96 11 -71 0 -95 -3 -92 -12z"/>
<path d="M8500 2881 c0 -5 10 -13 23 -17 12 -4 25 -12 29 -18 12 -18 9 -489
-3 -524 -15 -43 -69 -57 -69 -18 0 20 -25 37 -44 30 -23 -9 -21 -61 3 -74 31
-16 93 -12 128 10 64 38 68 58 71 333 l4 249 29 10 c54 19 30 28 -71 28 -55 0
-100 -4 -100 -9z"/>
<path d="M9250 2882 c0 -5 15 -15 33 -23 l32 -14 3 -194 c3 -202 0 -217 -40
-223 -12 -2 -23 -9 -26 -15 -3 -10 22 -13 102 -13 85 0 106 3 106 14 0 9 -12
16 -27 18 l-28 3 -3 208 -2 208 30 10 c55 20 31 29 -75 29 -58 0 -105 -4 -105
-8z"/>
<path d="M9490 2880 c0 -5 12 -13 26 -16 14 -4 30 -17 35 -31 13 -34 12 -359
-1 -384 -6 -11 -21 -19 -35 -19 -16 0 -25 -6 -25 -15 0 -12 18 -15 105 -15 87
0 105 3 105 15 0 9 -9 15 -25 15 -14 0 -29 8 -35 19 -6 12 -10 100 -10 217 l0
197 41 -6 c50 -7 76 -29 90 -78 20 -66 -17 -139 -72 -139 -20 0 -29 -5 -29
-16 0 -14 9 -16 56 -12 47 4 61 10 91 40 44 44 56 114 28 167 -28 54 -79 71
-222 71 -74 0 -123 -4 -123 -10z"/>
<path d="M9880 2881 c0 -5 13 -14 29 -19 l29 -10 3 -174 c4 -150 7 -177 24
-207 37 -63 65 -76 168 -76 81 0 96 3 126 24 53 38 61 71 61 240 0 160 7 195
39 206 45 14 17 25 -64 25 -87 0 -107 -10 -56 -28 36 -13 41 -38 41 -191 -1
-197 -23 -241 -125 -241 -110 0 -139 61 -133 285 l3 130 33 14 c17 8 32 18 32
23 0 4 -47 8 -105 8 -58 0 -105 -4 -105 -9z"/>
<path d="M10410 2880 c0 -5 11 -12 25 -16 14 -3 30 -14 35 -24 6 -10 10 -98
10 -195 0 -97 -4 -185 -10 -195 -5 -10 -21 -21 -35 -24 -57 -14 -21 -26 80
-26 87 0 105 3 105 15 0 9 -9 15 -25 15 -34 0 -45 31 -45 126 l0 75 29 -3 c24
-2 40 -21 102 -113 l74 -110 68 -3 c55 -2 67 0 67 13 0 8 -8 15 -19 15 -10 0
-31 12 -46 28 -31 30 -125 166 -125 180 0 5 12 15 26 22 34 19 54 60 54 112 0
52 -21 85 -66 104 -40 17 -304 20 -304 4z m261 -49 c62 -62 20 -158 -74 -168
l-47 -6 0 102 0 101 46 0 c37 0 51 -5 75 -29z"/>
<path d="M1353 2336 c7 -17 -87 -111 -101 -102 -25 15 -19 -13 8 -39 27 -26
30 -27 30 -9 0 11 22 41 49 68 45 44 49 46 65 31 9 -9 16 -20 16 -25 0 -17
-81 -105 -95 -102 -22 4 -18 -11 8 -36 29 -27 40 -28 32 -2 -4 13 3 31 22 55
l28 35 6 -27 c4 -16 7 -54 8 -85 0 -32 5 -58 10 -58 6 0 31 26 57 58 26 31 53
56 60 54 20 -4 17 12 -4 31 -24 22 -41 22 -36 0 3 -10 -8 -33 -24 -52 l-29
-35 -6 83 c-6 81 -8 84 -49 127 -43 44 -65 56 -55 30z"/>
<path d="M3274 2309 c-37 -40 -146 -128 -201 -162 -40 -25 -60 -53 -30 -42 16
7 83 -103 78 -129 -3 -19 -2 -19 27 0 30 19 41 39 22 39 -11 0 -80 98 -80 114
0 6 9 15 20 21 17 9 25 3 60 -44 26 -34 38 -59 34 -70 -8 -22 8 -20 40 5 28
22 35 45 12 36 -8 -3 -21 4 -30 18 -13 20 -13 25 -1 35 8 6 19 9 25 5 17 -10
11 11 -10 36 -19 24 -19 24 -20 3 0 -31 -26 -37 -44 -12 -14 20 -14 23 4 35
10 7 25 10 34 7 19 -7 21 7 4 24 -9 9 -8 12 7 12 25 0 115 -88 108 -106 -10
-26 13 -14 56 30 33 34 42 49 36 65 -3 12 -11 21 -17 21 -5 0 -8 -6 -5 -14 7
-16 -19 -56 -36 -56 -16 0 -39 38 -31 51 3 5 14 7 25 4 24 -8 25 7 1 28 -23
21 -32 21 -32 3 0 -24 -20 -29 -41 -10 -15 13 -16 20 -7 31 6 8 20 12 30 10
26 -7 31 7 10 27 -17 15 -20 14 -48 -15z"/>
<path d="M4952 2253 c603 -2 1593 -2 2200 0 607 1 113 2 -1097 2 -1210 0
-1706 -1 -1103 -2z"/>
<path d="M9247 2253 c304 -2 802 -2 1105 0 304 1 56 2 -552 2 -608 0 -856 -1
-553 -2z"/>
<path d="M1687 2079 c15 -15 -43 -137 -66 -142 -11 -2 -6 -9 16 -20 38 -20 63
-23 46 -6 -8 8 -8 18 -2 33 8 18 17 21 49 18 31 -3 40 0 50 18 19 35 4 68 -40
90 -44 23 -71 27 -53 9z"/>
<path d="M6103 2053 c-23 -4 -30 -17 -15 -27 4 -3 6 -21 4 -40 -3 -29 -9 -36
-26 -36 -32 0 -83 -35 -101 -70 -9 -17 -15 -48 -13 -68 3 -32 7 -37 31 -40 17
-2 37 4 48 14 17 16 19 16 19 1 0 -25 33 -21 60 8 25 27 21 46 -5 25 -14 -12
-15 -10 -10 16 13 54 46 189 51 207 5 17 1 18 -43 10z"/>
<path d="M8177 2032 c-15 -15 -31 -42 -37 -59 -6 -17 -21 -34 -33 -38 -19 -6
-20 -8 -4 -12 22 -6 22 -5 -8 -125 -14 -55 -24 -102 -22 -104 17 -17 37 20 62
116 26 100 31 110 52 110 13 0 23 5 23 10 0 6 -9 10 -20 10 -17 0 -19 4 -14
28 11 44 20 55 48 57 23 1 26 -4 32 -42 11 -77 1 -114 -74 -265 -2 -5 3 -8 10
-8 14 0 69 83 87 133 14 36 14 128 1 163 -22 58 -63 68 -103 26z"/>
<path d="M8718 2033 c-15 -16 -32 -43 -38 -60 -6 -17 -21 -34 -33 -38 -19 -6
-20 -8 -4 -12 22 -6 22 -5 -8 -125 -14 -55 -24 -102 -22 -104 17 -17 37 20 62
116 26 100 31 110 52 110 13 0 23 5 23 10 0 6 -9 10 -20 10 -17 0 -19 4 -14
28 11 44 21 56 46 57 29 0 31 29 3 33 -12 2 -32 -9 -47 -25z"/>
<path d="M9023 2053 c-23 -4 -31 -19 -13 -25 5 -2 -4 -53 -20 -118 -35 -137
-34 -130 -12 -130 11 0 24 16 35 45 22 53 80 108 85 81 5 -25 -18 -86 -33 -86
-16 0 -29 -30 -17 -42 14 -14 59 30 77 76 33 85 -1 123 -64 71 -37 -32 -37
-30 -11 60 11 38 20 71 20 72 0 3 -17 2 -47 -4z"/>
<path d="M3880 2031 c0 -2 8 -9 17 -16 15 -12 16 -20 4 -94 -7 -44 -11 -91 -7
-104 7 -29 44 -47 97 -47 63 0 84 28 100 135 8 59 19 95 31 107 10 10 18 19
18 21 0 2 -22 3 -50 3 -52 -1 -65 -10 -30 -21 11 -3 20 -9 20 -13 0 -15 -29
-158 -36 -175 -14 -38 -92 -42 -107 -5 -2 8 1 52 9 98 11 74 23 99 47 100 4 0
7 4 7 8 0 5 -27 8 -60 8 -33 0 -60 -3 -60 -5z"/>
<path d="M6597 2022 c-29 -32 -21 -79 23 -134 22 -28 40 -54 40 -59 0 -12 -30
-39 -45 -39 -20 0 -45 28 -45 51 0 10 -4 19 -10 19 -5 0 -10 -6 -10 -14 0 -7
-3 -27 -6 -43 -6 -29 -6 -29 49 -31 110 -5 142 66 66 151 -27 31 -39 54 -37
69 6 42 68 30 68 -13 0 -11 5 -19 10 -19 6 0 10 8 10 18 0 9 3 26 6 38 5 19 1
21 -49 23 -41 1 -57 -3 -70 -17z"/>
<path d="M7813 2016 c-34 -29 -27 -42 12 -22 88 46 75 -64 -19 -154 -25 -24
-46 -49 -46 -56 0 -8 26 -11 80 -11 78 1 80 1 89 29 8 22 7 28 -5 28 -7 0 -14
-4 -14 -10 0 -5 -21 -10 -47 -10 l-47 0 40 43 c23 23 48 53 58 67 53 80 -28
158 -101 96z"/>
<path d="M9450 2031 c0 -2 7 -9 17 -16 15 -11 15 -20 3 -105 l-13 -93 27 -24
c44 -38 131 -29 155 15 5 10 17 58 25 107 10 56 21 92 31 98 28 15 15 24 -30
23 -52 -3 -66 -11 -35 -21 19 -6 21 -12 16 -43 -27 -156 -37 -175 -85 -175
-57 0 -62 18 -41 141 9 55 16 73 31 77 37 12 18 22 -41 21 -33 0 -60 -3 -60
-5z"/>
<path d="M9802 2024 c-65 -33 -95 -109 -72 -179 15 -46 60 -75 117 -75 66 0
90 13 97 55 4 20 14 39 22 42 31 12 11 23 -41 23 -54 0 -74 -13 -36 -23 16 -4
18 -10 12 -33 -4 -15 -14 -32 -22 -37 -42 -27 -109 34 -109 98 0 98 140 167
175 87 5 -12 13 -22 16 -22 7 0 21 61 15 67 -2 2 -35 6 -72 9 -53 4 -77 1
-102 -12z"/>
<path d="M10093 2021 c-114 -72 -84 -251 43 -251 68 0 94 11 103 44 12 47 3
50 -33 11 -35 -37 -68 -44 -97 -22 -78 60 -28 217 69 217 20 0 52 -29 52 -48
0 -7 4 -12 9 -12 11 0 26 59 18 67 -3 3 -34 7 -69 10 -51 3 -69 0 -95 -16z"/>
<path d="M10432 1926 c-34 -62 -69 -119 -77 -126 -24 -20 -18 -28 25 -28 38
-1 52 10 30 23 -5 3 -3 20 7 40 15 31 21 35 54 35 35 0 37 -2 41 -36 3 -24 0
-38 -9 -41 -27 -10 -12 -20 32 -21 45 0 67 11 41 21 -8 3 -18 34 -25 74 -23
133 -33 173 -44 173 -7 0 -40 -51 -75 -114z"/>
<path d="M1905 1981 c9 -28 -24 -141 -41 -141 -27 0 -14 -18 17 -24 46 -9 55
-8 42 5 -11 11 -6 56 7 64 5 3 16 -17 25 -44 11 -34 22 -51 38 -55 11 -3 22
-4 24 -3 1 2 -7 22 -19 46 l-21 42 22 20 c22 20 27 45 13 66 -8 12 -38 25 -85
37 -25 6 -28 5 -22 -13z"/>
<path d="M5196 1965 c-4 -16 -13 -25 -26 -25 -11 0 -20 -4 -20 -10 0 -5 7 -10
15 -10 19 0 19 -5 0 -66 -21 -69 -19 -84 8 -84 26 0 84 54 69 64 -5 3 -15 -1
-22 -9 -23 -28 -27 -15 -12 40 13 46 19 55 38 55 17 0 21 -4 17 -20 -3 -11 0
-20 6 -20 6 0 11 7 11 16 0 27 24 9 37 -27 26 -75 9 -139 -38 -139 -12 0 -19
-7 -19 -20 0 -33 34 -24 74 20 72 80 125 227 79 218 -12 -2 -17 -12 -16 -28 2
-32 -16 -90 -28 -90 -5 0 -9 11 -9 25 0 14 -7 41 -15 61 -14 35 -15 35 -63 28
-49 -6 -50 -6 -45 20 4 21 2 26 -15 26 -13 0 -22 -9 -26 -25z"/>
<path d="M2523 1943 c-27 -5 -28 -9 -9 -28 17 -17 31 -128 16 -133 -5 -2 -10
-8 -10 -14 0 -14 89 -1 118 18 28 18 29 59 2 76 -14 9 -18 19 -14 35 12 45
-26 61 -103 46z"/>
<path d="M4154 1926 c-29 -24 -28 -50 1 -26 19 16 19 15 -5 -55 -19 -55 -19
-75 0 -75 4 0 22 24 39 54 26 47 69 92 78 83 1 -2 -7 -27 -18 -57 -11 -29 -18
-59 -15 -67 8 -19 45 -8 68 19 21 23 14 45 -8 27 -18 -15 -18 -10 1 34 34 82
7 113 -54 61 l-31 -26 2 23 c4 33 -24 35 -58 5z"/>
<path d="M4666 1929 c-33 -26 -56 -69 -56 -107 0 -35 16 -52 50 -52 28 0 90
34 90 50 0 15 -26 12 -40 -5 -18 -22 -55 -15 -55 9 0 14 10 22 35 29 45 11 70
34 70 62 0 39 -52 47 -94 14z"/>
<path d="M5568 1929 c-32 -24 -37 -44 -9 -36 18 4 18 2 3 -43 -15 -47 -12 -80
8 -80 5 0 28 16 50 36 39 36 40 36 30 10 -5 -15 -7 -32 -4 -37 7 -12 43 -2 67
19 23 20 22 35 -3 27 -19 -6 -19 -6 0 51 11 31 17 60 14 65 -10 17 -31 9 -43
-17 -14 -31 -71 -104 -82 -104 -4 0 1 25 11 56 27 77 13 94 -42 53z"/>
<path d="M5766 1929 c-31 -24 -34 -43 -6 -36 24 6 24 9 5 -43 -29 -81 -8 -111
27 -39 19 41 76 105 85 96 3 -3 -2 -24 -11 -47 -20 -50 -21 -90 -2 -90 20 0
66 39 66 57 0 14 -3 14 -20 -2 -25 -23 -25 -18 0 46 32 80 9 103 -55 55 l-32
-25 5 25 c6 31 -24 33 -62 3z"/>
<path d="M6208 1935 c-15 -9 -35 -29 -43 -45 -20 -39 -20 -106 1 -114 31 -12
63 -6 91 18 32 28 25 46 -9 22 -28 -20 -54 -21 -61 -2 -6 16 11 36 30 36 8 0
28 7 44 16 25 13 30 20 27 47 -2 26 -8 32 -28 34 -14 2 -37 -4 -52 -12z"/>
<path d="M6788 1935 c-15 -9 -35 -29 -43 -45 -20 -39 -20 -106 1 -114 31 -12
63 -6 91 18 32 28 25 46 -9 22 -28 -20 -54 -21 -61 -2 -7 17 9 31 45 40 38 9
60 34 56 65 -4 32 -39 39 -80 16z"/>
<path d="M7321 1936 c-51 -28 -68 -109 -31 -146 53 -53 150 -1 150 79 0 70
-57 102 -119 67z"/>
<path d="M7487 1930 c-32 -25 -35 -45 -7 -37 11 3 20 4 20 3 0 -2 -9 -28 -19
-59 -12 -33 -16 -59 -10 -62 14 -10 26 2 49 50 19 40 67 91 77 82 1 -2 -6 -30
-17 -62 -24 -69 -15 -89 27 -65 31 18 51 46 39 57 -5 4 -11 2 -13 -4 -3 -7 -9
-13 -13 -13 -5 0 0 25 10 56 11 31 17 60 14 65 -9 16 -36 10 -69 -15 -31 -24
-31 -24 -31 -3 1 29 -25 32 -57 7z"/>
<path d="M8485 1938 c-55 -30 -74 -109 -35 -148 53 -53 150 -1 150 79 0 68
-57 102 -115 69z"/>
<path d="M9234 1940 c-47 -19 -86 -109 -64 -149 15 -30 71 -28 107 3 35 30 25
44 -15 20 -32 -18 -62 -14 -62 10 0 9 16 19 38 26 47 12 75 40 70 72 -3 25
-37 34 -74 18z"/>
<path d="M2220 1921 c0 -5 5 -11 12 -13 14 -5 12 -131 -3 -136 -5 -2 -9 -8 -9
-13 0 -13 107 -11 133 3 56 29 64 93 18 139 -26 26 -36 29 -90 29 -34 0 -61
-4 -61 -9z"/>
</g>
</svg>